<?xml version="1.0" standalone="no"?>
<!DOCTYPE svg PUBLIC "-//W3C//DTD SVG 20010904//EN"
 "http://www.w3.org/TR/2001/REC-SVG-20010904/DTD/svg10.dtd">
<svg version="1.0" xmlns="http://www.w3.org/2000/svg"
 width="808.000000pt" height="808.000000pt" viewBox="0 0 808.000000 808.000000"
 preserveAspectRatio="xMidYMid meet">
<metadata>
Created by potrace 1.11, written by Peter Selinger 2001-2013
</metadata>
<g transform="translate(0.000000,808.000000) scale(0.100000,-0.100000)"
fill="#000000" stroke="none">
<path d="M2465 6756 l-1560 -901 0 -1815 0 -1815 1564 -902 c860 -497 1567
-903 1571 -903 4 0 711 406 1571 903 l1564 902 0 1815 0 1815 -1564 902 c-860
497 -1569 903 -1575 902 -6 -1 -713 -407 -1571 -903z m2841 -188 c975 -563
1300 -756 1291 -764 -7 -6 -223 -132 -482 -279 -258 -148 -839 -480 -1290
-738 -451 -259 -827 -472 -836 -474 -12 -4 -2585 1470 -2611 1495 -7 8 2588
1510 2611 1511 7 1 600 -338 1317 -751z m-3648 -1425 c284 -164 870 -501 1302
-750 l785 -452 5 -1513 c3 -832 4 -1514 4 -1516 -1 -1 -35 17 -75 41 -72 43
-1127 654 -2074 1203 l-470 272 -3 1506 c-1 828 1 1506 4 1506 3 0 238 -134
522 -297z m5174 -1058 c2 -729 3 -1398 3 -1487 l0 -161 -1280 -743 c-704 -409
-1283 -744 -1288 -744 -4 0 -6 669 -5 1487 l3 1488 1275 742 c701 407 1278
742 1283 742 4 1 8 -595 9 -1324z"/>
<path d="M3081 6346 c-498 -287 -906 -526 -908 -532 -1 -5 405 -244 904 -532
l907 -523 860 493 c474 271 885 506 913 523 29 16 51 34 49 40 -2 9 -1804
1055 -1816 1054 -3 0 -412 -235 -909 -523z m1423 -229 c279 -162 508 -298 508
-303 1 -7 -894 -528 -997 -580 l-30 -15 -505 291 c-278 160 -509 295 -513 299
-7 7 1004 600 1023 601 3 0 234 -132 514 -293z"/>
<path d="M3806 5944 c-121 -26 -206 -84 -206 -139 0 -29 37 -68 89 -94 139
-72 441 -72 580 -2 46 24 91 75 91 103 0 30 -62 84 -125 107 -113 42 -297 53
-429 25z"/>
<path d="M1527 4753 c-3 -4 -2 -479 1 -1054 l5 -1046 251 -146 c138 -79 547
-316 908 -526 362 -210 660 -381 663 -381 3 0 5 474 5 1054 l0 1054 -317 183
c-175 100 -565 325 -868 499 -302 174 -571 328 -597 343 -25 16 -48 24 -51 20z
m939 -989 c225 -129 413 -239 417 -243 5 -5 -76 -57 -180 -116 -103 -60 -198
-115 -209 -122 -21 -13 -28 -3 -220 329 -109 189 -204 353 -212 366 -8 12 -12
22 -9 22 2 0 188 -106 413 -236z m-332 -220 c165 -288 196 -348 185 -358 -16
-15 -383 -226 -393 -226 -3 0 -6 209 -6 465 0 256 3 465 8 465 4 0 96 -156
206 -346z m824 -878 l-3 -234 -165 286 c-91 157 -182 315 -202 352 l-38 67
203 116 202 117 3 -235 c1 -129 1 -340 0 -469z m-348 53 c105 -182 190 -333
187 -335 -5 -5 -761 434 -765 444 -3 9 355 220 375 221 6 1 97 -148 203 -330z"/>
<path d="M5540 4216 l-885 -515 -3 -1040 c-1 -573 0 -1041 2 -1041 2 0 55 30
117 66 233 136 1123 653 1389 806 151 88 279 163 283 168 10 9 -3 2070 -12
2070 -3 0 -404 -232 -891 -514z m164 -595 c-155 -271 -200 -341 -213 -336 -32
12 -381 217 -381 223 1 8 783 462 788 457 2 -1 -86 -156 -194 -344z m355 -373
c0 -159 -1 -288 -4 -288 -4 0 -405 228 -413 236 -2 1 88 162 200 356 l203 353
6 -185 c4 -102 7 -314 8 -472z m-820 3 c99 -57 181 -109 181 -114 0 -10 -356
-634 -371 -652 -5 -5 -9 187 -9 434 0 243 4 441 9 439 4 -1 90 -50 190 -107z
m526 -303 c150 -87 192 -115 182 -124 -17 -16 -778 -456 -781 -452 -2 2 358
631 387 676 5 6 10 12 13 12 2 0 92 -51 199 -112z"/>
</g>
</svg>
