<svg
  xmlns="http://www.w3.org/2000/svg" viewBox="0 0 349.85 403.97">
  <defs>
    <style> .cls-1{fill:#25242a}.cls-2{fill:#4ea1d3}.cls-3{fill:#fff} </style>
  </defs>
  <g class="icon">
    <path d="M170.87 214.05L3.98 113.44l167.49-101 167.48 101-168.08 100.61z" class="cls-1"/>
    <path d="M172.01 189.21L40.66 113.39l131.82-76.11 131.82 76.11-132.29 75.82z" class="cls-2"/>
    <path d="M172.15 165.64l-90.6-52.3 90.93-52.49 90.93 52.49-91.26 52.3z" class="cls-1"/>
    <path d="M172.29 143.11l-51.63-29.81 51.82-29.91 51.82 29.91-52.01 29.81z" class="cls-3"/>
    <ellipse cx="171.85" cy="113.6" class="cls-1" rx="18.97" ry="7.72"/>
    <path d="M9.45 298.14l1.58-198.07 173.2 97.59-1.61 198.79L9.45 298.14z" class="cls-1"/>
    <path d="M29.17 282.62l-.19-151.65 131.9 75.94.19 152.21-131.9-76.5z" class="cls-2"/>
    <path d="M49.64 270.94l-.14-104.61 90.99 52.39.13 104.99-90.98-52.77z" class="cls-1"/>
    <path d="M69.21 259.77l-.07-59.61 51.85 29.85.07 59.84-51.85-30.08z" class="cls-3"/>
    <path d="M63.7347219 199.29430113l6.77231866-3.91 56.375 97.64436428-6.77231865 3.91z" class="cls-1"/>
    <path d="M125.482075 223.71261955l3.91 6.77231866-66.01711653 38.115-3.91-6.77231866zM164.64 195.31l171.02-99.35.51 198.5-171.65 99.7.12-198.85z" class="cls-1"/>
    <path d="M185.74 207.59l128.87-74.87.39 149.59-129.35 75.13.09-149.85z" class="cls-2"/>
    <path d="M205.75 219.25l88.9-51.65.27 103.19-89.23 51.82.06-103.36z" class="cls-1"/>
    <path d="M224.89 230.39l50.66-29.43.15 58.8-50.84 29.54.03-58.91z" class="cls-3"/>
    <path d="M273.6235073 195.94638434l6.6650975 3.8356975-55.27095463 96.0415414-6.6650975-3.8356975z" class="cls-1"/>
    <path d="M283.26913244 260.47661106l-3.83569751 6.6650975-64.93486402-37.36937029 3.83569751-6.6650975z" class="cls-1"/>
    <path d="M174.92 20.78l156.93 90.6v181.21l-156.93 90.6L18 292.59V111.38l156.92-90.6m0-20.78L0 101v202l174.92 101 174.93-101V101L174.92 0z" class="cls-3"/>
  </g>
</svg>