<svg
  xmlns="http://www.w3.org/2000/svg" viewBox="0 0 1701.91 349.85">
  <defs>
    <style>
      .cls-1{fill:#25242a}.cls-2{fill:#4ea1d3}.cls-3{fill:#fff}
    </style>
  </defs>
  <g class="icon">
    <path d="M189.92 170.87L290.53 3.98l101 167.49-101 167.48-100.61-168.08z" class="cls-1"/>
    <path d="M214.76 172.01l75.82-131.35 76.11 131.82-76.11 131.82-75.82-132.29z" class="cls-2"/>
    <path d="M238.33 172.15l52.3-90.6 52.49 90.93-52.49 90.93-52.3-91.26z" class="cls-1"/>
    <path d="M260.87 172.29l29.8-51.63 29.91 51.82-29.91 51.82-29.8-52.01z" class="cls-3"/>
    <ellipse cx="290.37" cy="171.85" class="cls-1" rx="7.72" ry="18.97"/>
    <path d="M105.83 9.45l198.07 1.58-97.59 173.2-198.79-1.61L105.83 9.45z" class="cls-1"/>
    <path d="M121.35 29.17L273 28.98l-75.94 131.9-152.21.19 76.5-131.9z" class="cls-2"/>
    <path d="M133.03 49.64l104.61-.14-52.39 90.99-104.99.13 52.77-90.98z" class="cls-1"/>
    <path d="M144.2 69.21l59.61-.07-29.85 51.85-59.83.07 30.07-51.85z" class="cls-3"/>
    <path d="M204.67697078 63.74130964l3.91 6.77231866-97.64436428 56.375-3.91-6.77231866z" class="cls-1"/>
    <path d="M180.26369036 125.48410951l-6.77231866 3.91-38.115-66.01711653 6.77231866-3.91zM208.66 164.64l99.35 171.02-198.5.51-99.7-171.65 198.85.12z" class="cls-1"/>
    <path d="M196.38 185.74l74.87 128.87-149.59.39-75.13-129.35 149.85.09z" class="cls-2"/>
    <path d="M184.72 205.75l51.65 88.9-103.19.27-51.82-89.23 103.36.06z" class="cls-1"/>
    <path d="M173.58 224.89l29.43 50.66-58.8.15-29.54-50.84 58.91.03z" class="cls-3"/>
    <path d="M208.02305058 273.62290239l-3.83569751 6.6650975-96.0415414-55.27095464 3.8356975-6.6650975z" class="cls-1"/>
    <path d="M143.48721885 283.27632284l-6.6650975-3.8356975 37.36937029-64.93486402 6.6650975 3.8356975z" class="cls-1"/>
    <path d="M292.59 18l90.6 156.92-90.6 156.93H111.38l-90.6-156.93L111.38 18h181.21M303 0H101L0 174.92l101 174.93h202l101-174.93L303 0z" class="cls-3"/>
  </g>
  <g class="text">
    <g class="loot">
      <path d="M473.67 78.82c.7-.06 1.4-.17 2.11-.17H517v148h89.82a93.43 93.43 0 0 0 36.67 37.65 8.05 8.05 0 0 1-1.13.27H517.52c-14.39 0-28.77-.08-43.15-.12-.23 0-.46 0-.69.07zM604.3 171.26a95.18 95.18 0 0 1 50.38-83.2 87.23 87.23 0 0 1 34-10.07c15.78-1.32 31.06.56 45.55 7.24 19.77 9.12 34.52 23.51 44.44 42.86a96.17 96.17 0 0 1 9.79 30.67 92.28 92.28 0 0 1-8.21 53.71c-11.07 23.15-28.72 39.24-52.7 48.33a85 85 0 0 1-29.27 5.2 87.93 87.93 0 0 1-63.06-24.15c-16.2-15.23-25.86-34-29.46-55.87-.76-4.83-.99-9.8-1.46-14.72zm141.39-1c-.16-1.89-.3-4.83-.66-7.75A60.22 60.22 0 0 0 738 140a46.56 46.56 0 0 0-23.68-21.1 47.24 47.24 0 0 0-19.78-3 42.78 42.78 0 0 0-17.44 4.1 47.14 47.14 0 0 0-23.39 25c-7 17-7.2 34.17-.83 51.38A49.19 49.19 0 0 0 666 216.09a43.73 43.73 0 0 0 27.81 11.59c7.32.39 14.5-.38 21.29-3.32a46.52 46.52 0 0 0 22.74-21.14c5.43-9.96 7.61-20.72 7.85-33.01zM896.42 77.7c23.83-.2 44.38 8.18 61.68 24.38 14 13.07 22.95 29.2 27.42 47.76a92.52 92.52 0 0 1-6.64 63 91 91 0 0 1-18.43 26.18c-13.77 13.53-30 22.43-49.18 25.73a95.59 95.59 0 0 1-24.31.88 82.77 82.77 0 0 1-28.72-7.55c-20.35-9.59-35.32-24.61-45.12-44.81a95.43 95.43 0 0 1-8.92-29.84 93.41 93.41 0 0 1 8.58-53 93.19 93.19 0 0 1 63.12-50.67 82.83 82.83 0 0 1 16.46-2.06c1.35-.02 2.71 0 4.06 0zm47.92 93.6c0-1.3.07-2.59 0-3.89-.54-9.16-2.45-18-6.86-26.11C929 125.67 916 116.75 898 115.94a45.28 45.28 0 0 0-17.93 2.41c-12.11 4.45-20.73 12.78-26.41 24.24a64 64 0 0 0-6.14 23.08 68.68 68.68 0 0 0 3.24 28.07 51.42 51.42 0 0 0 14.08 22.33 43.7 43.7 0 0 0 27.81 11.62 47.06 47.06 0 0 0 19.31-2.55c11.08-4.16 19.21-11.72 24.82-22 5.35-9.95 7.51-20.66 7.56-31.84z" class="cls-3"/>
      <path d="M1089.51 116.43v147.73c-1.38.39-40.63.49-43 .12V116.46c-.79 0-1.36-.08-1.93-.08h-38.55c-5.72 0-11.44 0-17.15.14a2.6 2.6 0 0 1-2.68-1.52 91.62 91.62 0 0 0-36-35.06l-1.08-.6a3.06 3.06 0 0 1-.36-.34 3.17 3.17 0 0 1 1.83-.21h37.31l144.1-.15h2.59l14.18 37.79z" class="cls-3"/>
    </g>
    <g class="vgo">
      <path d="M1193.87 78.64q21.8 65.77 43.46 131.13h.37q21.46-65.53 42.92-131.1h45a1.29 1.29 0 0 1 .13.19s.07.12.06.16q-35 92.61-70.11 185.32c-.57 0-1.09.1-1.6.1h-32.9c-.92 0-1.61 0-2-1.15q-5.93-15.81-12-31.55-29-75.73-58-151.47c-.16-.44-.31-.89-.46-1.3a1.22 1.22 0 0 1 .13-.18.38.38 0 0 1 .13-.1c.53 0 1.06-.09 1.58-.09zM1701.91 176.46a5.88 5.88 0 0 0-.26 1.16 84.71 84.71 0 0 1-7.83 32.6q-17.16 38.06-56.72 51.61c-10.2 3.49-20.8 4.51-31.55 4.14a84.33 84.33 0 0 1-32.68-7.44c-21.94-10.09-37.64-26.34-47.45-48.33a93.39 93.39 0 0 1-7.73-28.72 92.46 92.46 0 0 1 8.25-49.76c11.29-24 29.52-40.37 54.4-49.34a84.49 84.49 0 0 1 25.8-4.7 93.18 93.18 0 0 1 25.95 2.46 87.74 87.74 0 0 1 39.78 22c15.24 14.45 24.47 32.24 28.48 52.78.69 3.56.84 7.24 1.25 10.86.07.63.2 1.24.31 1.86zm-141-4.58c0 .92.11 2 .15 3.16a64.28 64.28 0 0 0 6.12 25.42c5.19 10.88 13.08 19.09 24.27 23.87a47.24 47.24 0 0 0 22.52 3.26 42 42 0 0 0 15.31-3.94c11-5.38 18.65-14 23.46-25.18a68.43 68.43 0 0 0 5.4-28.76 66 66 0 0 0-4.76-23.78 47.91 47.91 0 0 0-21.84-24.84c-7.52-4.11-15.62-5.44-24.07-5.17a43.11 43.11 0 0 0-16.32 3.44 47.08 47.08 0 0 0-22.29 20.42c-5.59 9.9-7.72 20.67-7.96 32.1zM1464 198.58h-35.22c4.06-10.55 8.12-20.8 12.16-31.15h58.47c.38 1.31.48 94.89.09 96.94h-35.45v-13.45c-.89.49-1.47.8-2 1.13a107.75 107.75 0 0 1-28.4 11.5 81.71 81.71 0 0 1-30.53 1.43 85.67 85.67 0 0 1-46.47-21.39c-10.69-9.51-18.31-21.15-23.6-34.37a98.08 98.08 0 0 1-6.5-27.05 106.62 106.62 0 0 1 .35-25.56 90.64 90.64 0 0 1 16.63-41.39c14.08-19.33 33-31.2 56.4-36.09a98.55 98.55 0 0 1 27.8-1.44 88.65 88.65 0 0 1 27.76 6.43c16 6.7 28.54 17.24 36.86 32.6a70.8 70.8 0 0 1 7.77 21.5c.17 1 .3 2 .47 3.11-.61 0-1.12.1-1.63.1h-36.79a2.18 2.18 0 0 1-2.22-1.25c-7.72-13.65-19.59-21.32-34.87-23.93a44.85 44.85 0 0 0-24.5 2.35c-9.44 3.73-16.59 10.21-21.89 18.77a61.16 61.16 0 0 0-8.61 24.85 69.59 69.59 0 0 0 1.81 27.85c2.82 10 7.71 18.73 15.51 25.67a45.51 45.51 0 0 0 30.31 11.71c14.42.29 26.68-5 37.39-14.29 2.8-2.42 5.3-5.19 8-7.77a3.21 3.21 0 0 0 1-2.69c-.1-1.27-.1-2.56-.1-4.12z" class="cls-2"/>
    </g>
  </g>
</svg>