<svg xmlns="http://www.w3.org/2000/svg" viewBox="0 0 909 1250">
  <path d="M442.31 26.66c8.14.12 16.29.1 24.43.02l-.38.66c7.83-.17 15.65.64 23.47.3l-.61.64c8.24-.15 16.34 1.54 24.56 1.41l-.49.58c3.18.21 6.38.63 9.57.26l-.66.72c2.86.25 5.73.52 8.61.38l-.56.65c2.47.19 4.94.41 7.44.44l-.3.53c2.43.19 4.86.56 7.31.4l-.36.63c2.07.2 4.15.41 6.25.41l-.07.58c2.02.2 4.04.39 6.08.44l-.12.6c2.08.18 4.16.36 6.26.42l-.41.66c1.76.09 3.52.27 5.3.32l-.17.64c1.71.11 3.41.29 5.12.36l-.07.65c1.72.11 3.43.3 5.17.36l-.26.54c3.11.38 6.13 1.33 9.28 1.54l-.27.59c1.78.13 3.55.29 5.35.33l-.62.62c5.11.73 9.99 2.46 15.03 3.52 1.27.42 2.6.68 3.91 1.02 1.45.58 2.99.85 4.57.86l-.29.52c2.45.48 4.83 1.31 7.34 1.56l-.32.52 2.75.46c1.46.61 3.02.86 4.6 1.04l-.44.65 3.38.19-.23.68 2.73.38c3.46 1.26 6.92 2.73 10.62 3.11l-.49.51c2.12.54 4.2 1.27 6.41 1.45l-.39.76 3.45.13-.46.7c1.65.33 3.24.9 4.84 1.41.96.39 1.93.77 2.91 1.13 1.16.38 2.35.68 3.57.91l-.18.45c1.59.39 3.14.98 4.69 1.57 1.13.43 2.3.75 3.5.96l-.19.65 3.35.27-.37 1.22 1.54-.46c2.68 1.5 5.56 2.9 8.65 3.25l-.12.68c2.35.41 4.38 1.75 6.68 2.36 1.66.94 3.41 1.78 5.34 1.99l.06.61c2.43.46 4.45 2.14 6.95 2.41l.12.94 1.38-.21a10.05 10.05 0 0 0 5.59 2.25l-.19 1.01 2.06-.29.16 1.24 1.39-.17c3.65 2.07 7.46 4.12 11.52 5.23l-.01.98 1.97-.28.08 1.26 1.86-.27.23 1.25 1.74-.29.24 1.23 1.36-.09 2.42 1.24.26.86 1.71-.23.29 1.21 1.37-.1 1.98 1.43 2.39.78.3.95 1.72-.27.22 1.32 1.36-.24c.85.64 1.73 1.25 2.65 1.82 4.21 2.02 8.2 4.48 12.43 6.47.88.49 1.76 1 2.64 1.54 4.49 2.5 8.74 4.99 13.34 7.4 2.4 1.42 4.63 3.35 7.42 3.97l-.21.5c1.66.69 3.03 1.98 4.8 2.46a16.31 16.31 0 0 0 5.01 3.06c2.5 1.92 5.28 3.44 8.01 5.03.97.7 1.95 1.43 3.06 1.94 1.58 1.08 3.08 2.33 4.92 2.99a8.64 8.64 0 0 0 3.03 2.03c6.98 4.71 14.03 9.34 21.03 14.01.92.74 1.9 1.44 2.92 2.08 3.39 2.23 6.54 4.84 10.06 6.91 2.3 1.85 4.62 3.77 7.31 5.05l-.04.42c1.22.85 2.43 1.72 3.73 2.49 5.26 4.07 10.59 8.1 16.01 11.97 2.7 2.13 5.24 4.62 8.36 6.12l-.25.41c3.21 1.92 5.81 4.71 9.06 6.58-.05 209.3-.03 418.59-.02 627.89l-.73-.32c-.02 3.76-.36 7.51-.31 11.28l-.57-.2c-.21 2.39-.45 4.81-.43 7.23l-.69-.32c-.11 1.75-.29 3.51-.31 5.29l-.67-.26-.41 3.73c-.6 1.26-.86 2.61-1.11 3.99-.6 1.46-.8 3.02-.89 4.61l-.57-.37-.43 2.83a13.35 13.35 0 0 0-1.05 4.73l-.65-.72-.27 3.68-.73-.58-.26 3.6-.59-.59c-.36 1.66-.9 3.3-1.55 4.88-.4 1.13-.72 2.28-.97 3.47l-.46-.14c-.51 1.68-1.2 3.33-1.49 5.09l-.57-.09c-.51 1.7-1.24 3.34-1.45 5.13l-.96-.2.26 2.07-1.23.16.18 1.39c-1.43 1.84-2.19 4.08-3.22 6.16l-.97 1.98c-1.34 2.29-2.29 4.81-3.9 6.94l.19.89c-1.93 2.05-3.03 4.66-4.3 7.13-1.1 1.58-2.24 3.16-2.91 5a19.58 19.58 0 0 0-3.06 4.97c-1.52 1.92-2.74 4.03-4.02 6.11-2.03 2.97-4.08 5.94-6.01 8.98-.77.91-1.43 1.92-2.19 2.85l-.9 2.1c-2.59 2.04-4.2 5.18-6.05 7.9a8.97 8.97 0 0 0-1.87 2.11c-.98 1.32-2.06 2.58-2.92 3.99-2.76 3.28-5.42 6.65-8.08 10.01-1.64 2.01-3.47 3.85-5 5.94-1.68 2.03-3.51 3.92-5.18 5.96a57.3 57.3 0 0 0-1.85 1.95l-.94 1.28c-2.62 3.15-5.94 5.71-8.14 9.19l-.61-.13-.23 1.03-1.02.27.3.92-1.15-.21.19 1.11-.76-.03c-8.08 9.11-17.09 17.37-25.65 26.03l-.72.04.01 1.08-.83-.27-.28.98-1.04.18.39.99-1.28-.27.03.83a5.7 5.7 0 0 0-2.36 2.1c-2.86 2.22-5.4 4.82-7.93 7.4l-.51-.12-.32.92-1.02.16.19.54c-3.14 1.97-5.43 4.96-8.4 7.15-.74.55-1.41 1.18-2.02 1.89-1.76 1.23-3.26 2.78-4.87 4.19l-1.04.88c-2.04 1.36-3.61 3.3-5.69 4.62l-.06.37c-2.21 1.26-3.82 3.27-5.94 4.64l-.06.37c-1.93 1.11-3.53 2.67-5.19 4.12l-1.09.87c-1.64 1.17-3.14 2.53-4.81 3.65l.25.35c-3.45 1.88-6.34 4.67-9.41 7.12-3.03 2.02-5.73 4.48-8.74 6.53l.06.37c-1.66.7-3.02 1.89-4.33 3.09a22.73 22.73 0 0 0-3.99 2.97 25.4 25.4 0 0 0-4.01 3 169.6 169.6 0 0 0-10.99 8.02 67.38 67.38 0 0 0-7.01 4.98 58.88 58.88 0 0 0-7.01 5.03 8.12 8.12 0 0 0-2.97 1.98c-3.45 2.2-6.86 4.48-10.07 7.02-.92.45-1.83.92-2.74 1.4l.11.59a5.2 5.2 0 0 0-3.28 2.07 6.47 6.47 0 0 0-3.03 1.95c-1.12.46-2.1 1.16-3.01 1.96a15.03 15.03 0 0 0-2.98 2.02 7.36 7.36 0 0 0-3.01 2.02 9.2 9.2 0 0 0-3.01 1.96 9.03 9.03 0 0 0-3.05 2.02c-3.82 2.03-7.31 4.64-10.95 6.98-1.12.51-2.1 1.23-3.03 2.02a53.45 53.45 0 0 0-7.97 5.07c-.97.38-1.91.82-2.82 1.32l.21.57c-2.1.44-3.8 1.75-5.39 3.11-2.69.98-4.84 2.99-7.36 4.3-1.86 1.27-3.99 2.12-5.68 3.64a15.3 15.3 0 0 0-4.98 3.05c-1.91.49-3.45 1.74-4.98 2.91-1.7.65-3.19 1.73-4.82 2.51l.22.5c-2.77.65-5.1 2.48-7.42 4.05-1.52.64-3 1.4-4.36 2.35-.88.58-1.78 1.1-2.72 1.57-1.59.81-3.09 1.8-4.72 2.52l.18.87-1.45-.26c-2.37 2.06-5.48 2.98-7.94 4.92-2.24.91-4.27 2.23-6.36 3.42-.88.53-1.78 1.04-2.69 1.53-3.07 1.65-6.37 3.03-9.05 5.31l-.9-.16a70.22 70.22 0 0 1-9.74 5.34l.19.55-2.52 1.2-.97-.06c-5.06 3.55-11.21 5.33-16.07 9.15l-1.28-.41-.28 1.41-1.76-.28-.19 1c-2.3.45-4.32 1.77-6.31 2.95a90.48 90.48 0 0 0-7.97 4.07 22.2 22.2 0 0 0-4.04 1.97c-1.75.76-3.42 1.69-5.15 2.49-2.63 1.39-5.33 2.65-7.95 4.07-3.72 2.3-7.2-.81-10.75-1.64l.12-.99-2.01.35-.04-1.27-1.9.26-.21-1.31-1.77.34-.22-1.34-1.81.33-.16-1.32-1.83.31-.18-1.3-1.82.29-.25-1.37-1.31.34a22.96 22.96 0 0 0-2.76-1.9c-4.82-2.36-9.57-4.84-14.33-7.29l-2.05-1.03c-2.27-1.27-4.6-2.44-6.91-3.61l-2.05-1.34-1.37.3.12-.86a135.42 135.42 0 0 1-11.79-6.39l-.85.15c-2.97-2.7-7.02-3.67-10.11-6.17l-.89.19c-2.29-2.35-5.65-3.05-8.08-5.18l-.95.19c-1.98-2.02-4.68-3-7.08-4.38a26.4 26.4 0 0 1-2.64-1.54 35.7 35.7 0 0 0-4.38-2.38 43.32 43.32 0 0 0-7.01-3.98c-2.31-1.56-4.64-3.33-7.37-4.02l.16-.51c-1.63-.77-3.11-1.8-4.76-2.5-1.59-1.14-3.18-2.31-5.03-2.95a16.92 16.92 0 0 0-5.01-2.95 19.28 19.28 0 0 0-5.02-3.1 17.77 17.77 0 0 0-5.03-2.96c-1.57-1.63-3.8-2.28-5.51-3.68-.82-.47-1.63-.91-2.45-1.31a21.4 21.4 0 0 0-5-3.05c-.93-.78-1.87-1.57-3.01-1.97-1.59-1.09-3.06-2.42-4.95-2.95-.74-1.05-1.89-1.6-3.03-2.04a14.63 14.63 0 0 0-3.03-2.01c-1.72-1.06-3.17-2.69-5.26-2.96l.15-.63c-.95-.48-1.9-.94-2.85-1.38a7.64 7.64 0 0 0-3.02-2.04c-.92-.8-1.93-1.45-2.98-2.03-6-4-11.98-8.03-18.01-12-.94-.77-1.9-1.49-3.01-1.96a6.31 6.31 0 0 0-2.94-1.99 115.85 115.85 0 0 0-10.04-7.03 37.7 37.7 0 0 0-4.04-3 44.04 44.04 0 0 0-2.96-2.01 78.18 78.18 0 0 0-7-5.01 23.87 23.87 0 0 0-4.01-2.94 1625.81 1625.81 0 0 0-19.99-14.99 17.3 17.3 0 0 0-4.39-3.17l.29-.42c-7.09-4.63-13.26-10.65-20.18-15.55l-.05-.36c-2.01-1.37-3.67-3.17-5.68-4.53-2.1-1.7-3.94-3.71-6.26-5.11l-.01-.4c-2.55-1.45-4.26-3.93-6.72-5.5-2.52-1.98-4.56-4.53-7.33-6.16l.16-.47-1.39-.81c-2.2-1.83-4.09-3.99-6.34-5.74l-1.98-2.02-1.5-.82.11-.4c-3.85-2.91-6.92-6.69-10.65-9.74a4.8 4.8 0 0 0-2.48-2l.2-1.02-1.3.42.32-1.15-1.2.07.05-1.16-1.12.22.23-1.05-1.09-.11-.18-1.07-.92.33.22-1.18-1.17.18.15-1.16-1.16.14.15-1.16-.75.12-1.37-1.37.11-.77-.74.12-1.35-1.35.11-.74-1.16.14.13-1.16-1.16.14.17-1.16-1.17.18.21-1.17-1.18.23.25-1.22-1.28.2.41-1.04-1.18-.03-.08-1.13-.6.09a14.99 14.99 0 0 0-2-2.4c-3.2-3.61-6.88-6.78-9.82-10.61l-.38.09-.85-1.53a72.9 72.9 0 0 1-1.98-1.94c-1.62-2.07-3.52-3.87-5.2-5.87l-.86-1.05c-1.62-2.08-3.44-3.98-5.13-5.98-1.39-2.01-3.21-3.67-4.55-5.71l-.38-.03c-2.13-3.68-5.59-6.41-7.52-10.2l-.46.34a13.43 13.43 0 0 0-3.1-4.39 57.05 57.05 0 0 0-2.52-3.75l-.43.04c-1.23-2.72-3.26-4.96-5.03-7.33a15.85 15.85 0 0 0-2-2.96 271.14 271.14 0 0 0-6.01-9.01 8.13 8.13 0 0 0-2.06-3.03c-.62-1.88-1.83-3.45-3-5a22.3 22.3 0 0 0-2.93-4.99c-1.27-2.47-2.36-5.08-4.29-7.12l.19-.91c-2.38-3.4-3.88-7.31-5.9-10.92l-1.02-2.1c-.5-1.14-.99-2.28-1.34-3.45l-.91-.18.28-1.93-.99.09a12.4 12.4 0 0 0-2.02-5.42 26.34 26.34 0 0 0-1.99-5.03 29.3 29.3 0 0 0-1.94-4.99 72.4 72.4 0 0 0-.98-3.05c-1.08-2.98-1.9-6.05-3.12-8.97l-.38-2.93-.64.6c-.1-1.63.11-3.36-.99-4.7a13.81 13.81 0 0 0-.96-4.02c-.16-1.26-.31-2.51-.44-3.75l-.62.28c-.06-1.73-.26-3.45-.38-5.16l-.61.11c-.01-2.21-.2-4.42-.92-6.51-.1-3.99-1.33-7.82-1.49-11.79l-.62.42c-.46-24.24-.08-48.49-.2-72.73-.01-185.75.01-371.49-.01-557.23 1.24-.39 2.27-1.17 3.29-1.93l1.1-1.05c2.47-1.81 4.56-4.08 6.9-6.05l1.05-.91c2.06-1.38 3.63-3.37 5.79-4.61l-.09-.34c1.8-1.04 3.33-2.45 5-3.67l.03-.36c1.85-.99 3.32-2.54 5.1-3.64l-.19-.33c1.64-.77 3.02-1.96 4.38-3.13 1.96-1.67 4.52-2.72 6.01-4.87 3.63-1.9 6.68-4.73 9.98-7.16a62.46 62.46 0 0 0 3.75-2.49l-.07-.4a11.5 11.5 0 0 0 3.31-2.06c2.42-1.55 4.73-3.27 7.04-4.98a20.52 20.52 0 0 0 2.95-2.02c2.06-1.23 3.99-2.64 5.96-4 3.03-1.97 6.07-3.92 9.03-5.99 1.1-.55 2.11-1.26 3.07-2.02a65.79 65.79 0 0 0 7.93-5.07c.97-.44 1.93-.9 2.89-1.39l-.22-.51c2.01-.53 3.8-1.67 5.33-3.06 1.9-.56 3.46-1.8 5.03-2.94 1.67-.73 3.18-1.75 4.82-2.52l-.18-.87 1.43.27c1.77-1.77 4.44-2.24 6.02-4.23l.95.23c2.42-2.17 5.81-2.85 8.08-5.22l.92.22c3.52-2.52 7.56-4.22 11.36-6.27.94-.56 1.84-1.18 2.69-1.87l1.35.28.27-1.35 1.74.3.2-1.01c1.6-.23 3.03-1.05 4.39-1.87l2.07-1.27 1.34.06.27-1.2 1.75.28.23-1.28 1.82.29.13-1.26 1.92.27.11-1.34 1.92.46-.08-1.04c3.43-.68 6.32-2.76 9.54-4.01l2.1-1.2 1.44.11-.04-.93c2.72-.47 5.23-1.76 7.54-3.23l1.49.18-.04-.98c2.07-.12 3.92-1.11 5.61-2.24l1.46.27-.15-.94c1.74-.35 3.41-.99 5.11-1.51l.03-.59a15.19 15.19 0 0 0 5.38-1.97 25.13 25.13 0 0 0 5-2.01c1.57-.48 3.11-1.04 4.69-1.52l-.17-.45c1.74-.33 3.41-.97 5.14-1.41l-.08-.58c1.19-.21 2.35-.5 3.5-.89a13.44 13.44 0 0 1 4.81-1.42l-.68-.74 3.58-.34-.3-.61c1.21-.22 2.42-.51 3.6-.88.98-.39 1.96-.77 2.95-1.14 1.59-.47 3.14-1.07 4.78-1.39l-.27-.63c4.68-.48 8.94-2.73 13.45-3.96 1.03-.32 2.05-.68 3.05-1.09l2.67-.41-.25-.64 3.46-.25-.61-.63a20.8 20.8 0 0 0 7.68-2.11l2.79-.25-.28-.7c1.56-.05 3.12-.32 4.54-.97l2.79-.37-.28-.74c1.39-.06 2.78-.15 4.18-.25l-.22-.61c1.57-.2 3.17-.43 4.66-.99 1.3-.27 2.59-.6 3.87-.97 1.33-.31 2.66-.61 3.97-1.02 1.37-.22 2.73-.57 4.03-1.08 1.21-.16 2.42-.31 3.64-.44l-.09-.64c1.38-.07 2.77-.15 4.16-.25l-.2-.71c1.88-.01 3.78-.16 5.52-.95 1.26-.14 2.53-.27 3.8-.39l-.42-.67c1.77-.03 3.54-.2 5.31-.3l-.22-.7c1.77-.05 3.54-.21 5.31-.31l-.42-.66a20.5 20.5 0 0 0 6.68-.94c1.54-.16 3.09-.37 4.65-.46l-.25-.62c2.08-.04 4.16-.23 6.23-.39l-.23-.61c2.11-.06 4.21-.23 6.32-.36l-.3-.72c2.42.11 4.84-.12 7.26-.35l-.3-.59a70.2 70.2 0 0 0 7.52-.42l-.7-.61c2.89.16 5.77-.17 8.66-.37l-.63-.6c3.46.09 6.91-.22 10.37-.46l-.18-.54c3.72.06 7.44-.29 11.17-.47l-.16-.57c4.46.21 8.92-.33 13.38-.37l-.55-.62c8.83.26 17.65-.55 26.49-.37l-.38-.64m-9.1 53.04l.61.63c-6.45-.26-12.9.18-19.35.43l.17.58c-4.03-.18-8.05.23-12.07.43l.06.55c-3.12-.07-6.23.2-9.33.41l.44.68c-4.31-.54-8.51.72-12.77 1.03-1.12.43-3.37-.43-3.73 1.04-2.27-.26-4.53.06-6.78.24l.19.59c-2.1.03-4.18.2-6.26.35l.33.61c-2.09.05-4.18.22-6.26.4l.15.65c-2.18-.07-4.39.09-6.43.91l-4.63.5.24.58c-1.93-.08-3.84.22-5.66.84-2.9.45-5.74 1.23-8.65 1.59l.17.48c-3.26.17-6.4 1.07-9.52 1.95-1.37.22-2.7.58-4.02.98-1.34.28-2.66.59-3.96.97-2.31.56-4.58 1.29-6.94 1.6l.61.55c-1.45.09-2.89.2-4.33.32l.18.59c-2.46.3-4.81 1.07-7.22 1.59l.24.43a23.1 23.1 0 0 0-7.5 2.08l-2.76.35.28.68-3.36.21.37.65c-5.36.65-10.14 3.44-15.42 4.43l.56.66-3.53.23.43.8-3.35.24.22.63c-1.2.22-2.38.53-3.52.92-1.55.64-3.12 1.29-4.8 1.41l.58.58c-1.33.16-2.6.51-3.8 1.04a75.68 75.68 0 0 0-7.9 3.1 28.15 28.15 0 0 0-5.01 2c-2.26.64-4.31 1.85-6.59 2.42l-.04.6c-2.53.13-4.51 1.96-6.98 2.32v.64c-2.52.24-4.55 1.94-6.99 2.44l-.06.51-2.43.86c-2.35 1.02-4.71 2-6.94 3.25-1.16.48-2.31.97-3.52 1.33l-.14.91-1.94-.22.06.9c-3.64.82-6.73 3.05-10.12 4.52-3.45 2-7.43 3.19-10.47 5.84l-1.26-.4-.23 1.11c-3.87 1.08-7.13 3.67-10.75 5.38-.88.56-1.77 1.08-2.69 1.58-2.4 1.31-5.1 2.3-7 4.35l-.97-.22c-1.8 1.63-4.16 2.41-6.01 3.96-1.88.6-3.46 1.79-4.99 2.99a15.24 15.24 0 0 0-4.96 3.02 15.59 15.59 0 0 0-4.94 3.01c-.98.44-1.94.9-2.89 1.39l.21.52c-3.11 1.02-5.62 3.27-8.36 5-1.1.53-2.11 1.23-3.02 2.03a6.27 6.27 0 0 0-2.96 2.04 6.7 6.7 0 0 0-3.03 1.99 7.25 7.25 0 0 0-2.99 1.97 111.45 111.45 0 0 0-10.03 6.97 71.44 71.44 0 0 0-6.97 5.01 29.89 29.89 0 0 0-4 2.98 29.1 29.1 0 0 0-4.01 3.06 97.6 97.6 0 0 0-8.97 6.99c-1.82 1.13-3.39 2.6-5.01 3.99-1.99 1.39-3.73 3.11-5.69 4.57l-.07.35c-2.56 1.44-4.4 3.8-6.69 5.6l-1.44.82.19.47a3.94 3.94 0 0 0-2.4 2.4l-.53-.1c-1.84 3.26-1.19 7.1-1.3 10.67.02 172.98.01 345.95.01 518.93.16 17.99-.97 36.2 2.88 53.91.62 3 .83 6.15 2.07 8.99.2 1.35.51 2.69.98 3.99l.44 2.88.57-.49c.12 1.52.37 3.07.87 4.53.35 1.02.71 2.04 1.09 3.06.55 1.59 1.18 3.18 1.29 4.9l.76-.67.3 3.5.65-.23c.3 1.74.93 3.4 1.42 5.11l.59-.02c.28 2.51 1.86 4.58 2.43 7l.58.04c1.66 5.56 4.91 10.53 7.42 15.74 1.1 1.42 1.48 3.23 2.63 4.63.9 1.72 1.75 3.5 3.03 4.99a19.02 19.02 0 0 0 2.96 5c3.41 6.19 7.7 11.84 11.54 17.78l.43-.08c1.17 2.74 3.24 4.98 5.05 7.31a35.37 35.37 0 0 0 3.01 4.02c1.06 1.69 2.52 3.1 3.53 4.84l.34-.21c1 2.02 2.54 3.7 4.07 5.34a38.01 38.01 0 0 0 4.11 4.95l.8 1.06c1.58 2.07 3.41 3.93 5.12 5.89l1 1.15c2.58 3.48 6.03 6.2 8.59 9.7l.79-.04-.32.89 1.1.1.01 1.13 1.08-.27-.18 1.35.8-.22c.42 1 1.09 1.8 2 2.41a396.5 396.5 0 0 0 19.98 19.99 4.78 4.78 0 0 0 2.45 1.95l-.45.74 1.42-.14-.07 1.32.93-.33 1.19 1.31-.17.76.77-.04c3.22 3.23 6.51 6.41 9.98 9.38l1.42.92-.11.4c2.82 1.9 4.92 4.64 7.71 6.59 2.46 2.01 4.6 4.44 7.34 6.12l-.05.32c2.03 1.36 3.7 3.19 5.71 4.6 2.01 1.64 3.85 3.54 6.07 4.93a26.35 26.35 0 0 0 5.27 4.12l-.09.36c1.71 1 3.07 2.5 4.77 3.53a98.66 98.66 0 0 0 9.04 7c1.27 1.25 2.65 2.46 4.36 3.07l-.23.38c4.17 2.72 7.79 6.25 12.16 8.67l-.06.36c1.23.85 2.44 1.73 3.73 2.52 2.36 1.78 4.59 3.84 7.32 5.06l-.04.45c2.33 1.36 4.37 3.15 6.7 4.52 3.23 2.49 6.58 4.8 10.01 7a8.49 8.49 0 0 0 3.35 2.04l-.06.44c9.09 5.73 17.65 12.4 27.06 17.56l-.16.48 2.81 1.44c4.53 3.24 9.33 6.09 14.06 9.02a40.2 40.2 0 0 0 4.95 3.03c.97.72 1.98 1.41 3.05 2.01.86.46 1.7.97 2.52 1.54 2.51 1.4 4.82 3.15 7.41 4.41a28.29 28.29 0 0 0 5 2.97c2.35 1.51 4.62 3.36 7.38 4.07l-.17.48c1.63.75 3.06 1.9 4.79 2.46 1.75 1.66 4.22 2.24 5.95 3.95l1.45-.28-.22.87c1.65.73 3.18 1.71 4.81 2.54.91.46 1.79.99 2.64 1.58 1.79 1.05 3.74 1.85 5.31 3.27l1-.22c2.14 2.49 5.66 3.01 8 5.27l.98-.26c2.56 2.45 6.01 3.7 9.09 5.38.88.5 1.76 1.02 2.65 1.55 3.7 2.2 7.81 3.77 11.26 6.35l.96-.26c4.59 3.41 10.03 5.59 15.08 8.24 1.3.75 2.52 1.74 4.06 2 .9.6 1.84 1.17 2.8 1.71 1.15.52 2.31 1.08 3.56 1.38l.18.96 1.75-.3.24 1.29 1.77-.27.25 1.28 1.73-.3.3 1.36 1.74-.4.09 1.29 1.98-.18-.03 1.16 1.97-.16.21 1.24 1.73-.32.26 1.29 1.77-.26.28 1.34 1.22-.27c1.32 1.42 3.53 1.21 5.14.49 9.75-4.79 19.42-9.73 29.11-14.62a52.4 52.4 0 0 0 2.72-1.88l1.33.28.25-1.33 1.43.14c4.19-2.77 8.87-4.78 13.26-7.23.94-.57 1.85-1.18 2.73-1.83l.95.03c3.11-2.47 7.17-3.4 10.08-6.14l.91.23c2.35-2.26 5.9-2.75 8.04-5.26l.98.27c2.37-2.1 5.49-3.02 8-4.93a43.82 43.82 0 0 0 7-4.03 39.84 39.84 0 0 0 6.93-4 20 20 0 0 0 5-2.96c1.7-.67 3.18-1.77 4.85-2.5l-.2-.87 1.34.22c1.94-1.43 4.09-2.5 6.04-3.91a28.3 28.3 0 0 0 4.99-2.99c3.42-1.77 6.61-3.94 9.87-5.97a15.81 15.81 0 0 0 3.11-1.99 33.81 33.81 0 0 0 4.91-3.01c1.15-.48 2.13-1.27 3.11-2.01 3.81-2.08 7.44-4.52 11-7.01.92-.49 1.86-.96 2.8-1.42l-.17-.5c1.3-.43 2.48-1.14 3.6-1.91 7.89-5.42 16.12-10.39 23.76-16.17a6.82 6.82 0 0 0 2.94-2.02 111.6 111.6 0 0 0 10.04-6.97 69.6 69.6 0 0 0 7.02-5.04c1.27-.77 2.47-1.66 3.72-2.48l-.05-.44c7.12-4.2 13.29-9.91 20.15-14.55l-.19-.4c1.68-.66 3.03-1.89 4.35-3.08 1.68-1.09 3.12-2.52 4.85-3.53l-.24-.34c3.43-1.91 6.27-4.71 9.33-7.14l1.11-.93c1.61-1.12 3.03-2.5 4.64-3.61l.05-.33c2.33-1.41 4.18-3.44 6.31-5.1 2.09-1.54 3.97-3.33 5.89-5.06l1.08-.85c2.46-1.88 4.63-4.11 7.02-6.09 2.98-2.3 5.54-5.07 8.36-7.55l1.39-.93-.03-.38c.88-.55 1.66-1.21 2.35-1.98 4.24-3.73 8.13-7.84 12.28-11.65l1.32-1.11-.04-.69h1.04v-1.06l.7.13 1.34-1.35-.08-.34 1.36-1.36.75.11-.14-1.16 1.15.15-.15-1.16 1.17.15-.14-.76 1.36-1.3.66-.01-.02-1.04.7.04 1.1-1.32c4.09-4.65 8.96-8.67 12.61-13.7l.46.13.83-1.38c2.17-2.49 4.63-4.74 6.61-7.4l.95-1.11c1.64-2 3.56-3.77 5-5.94 1.42-1.59 2.88-3.17 4.04-4.98 1.53-1.64 3.05-3.34 4.08-5.35l.37.18c1.22-2.5 3.75-4.1 4.62-6.81 3.52-3.45 6.15-7.94 8.88-12.06 1.09-.79 1.64-2.04 2.02-3.27l.59.09c.46-.93.91-1.87 1.34-2.81 1.01-.74 1.57-1.89 2.04-3.01.73-.97 1.47-1.94 2.07-3 1.15-2.44 3.09-4.41 3.96-6.98 2.08-2.36 2.84-5.55 4.95-7.9l-.23-.93c3.18-4.37 5.56-9.45 7.35-14.53l.9-.13-.16-1.37a11 11 0 0 0 2.22-5.56l.67.1c.45-1.72 1.06-3.38 1.36-5.12l.56.18c.33-1.61.91-3.15 1.47-4.68.36-.99.69-1.98 1-2.98.35-1.03.71-2.06 1.08-3.07.48-1.43.75-2.94.82-4.43l.71.25.3-2.78c.8-1.36.83-2.99 1.02-4.48l.55.12c.13-1.22.28-2.42.45-3.61.72-1.74.97-3.61.82-5.47l.85.03c.05-2.05.2-4.09.26-6.12l.62.27c.22-2.47.43-4.94.28-7.41l.65.56c.35-4.54.6-9.08.42-13.62l.72.76c.11-17.16-.14-34.32-.03-51.47l-6.34-.42 6.32-.41c-.04-1.74-.04-3.46 0-5.18l-6.18-.41 6.18-.42c-.04-1.73-.04-3.45 0-5.17l-8.03-.41 8.05-.42c-.11-23.38-.11-46.78 0-70.16l-7.22-.42 7.22-.41c.01-138.89-.06-277.78.07-416.66a23.07 23.07 0 0 0-.45-3.9l-.96-1.99c-.92-1.1-1.95-2.1-3.19-2.82a40.36 40.36 0 0 0-4-2.95 24.59 24.59 0 0 0-4.05-3.01c-1.26-1.27-2.63-2.5-4.35-3.07l.26-.41c-3.13-1.92-5.75-4.57-8.88-6.49-2.54-2.19-5.34-4.03-8.02-6.03a26.87 26.87 0 0 0-2.97-2.03 51.4 51.4 0 0 0-4.05-3.03c-.98-.67-1.93-1.36-2.92-1.97-2.33-1.73-4.66-3.46-7.11-4.99a116.44 116.44 0 0 0-5.92-4.03c-.98-.72-1.96-1.4-2.99-2.01-.98-.72-1.96-1.4-3-1.99-.99-.71-1.97-1.44-3.05-1.98a19.42 19.42 0 0 0-2.99-1.99c-2.63-1.74-5.18-3.6-7.99-5.03-2.57-1.78-5.15-3.62-7.98-4.93a17.93 17.93 0 0 0-5.02-3.04 18.2 18.2 0 0 0-4.97-3.01 20.39 20.39 0 0 0-4.98-2.95 48.12 48.12 0 0 0-7.02-4.06c-3.13-2.29-6.89-3.54-9.94-5.92l-1.4.32.1-.89c-3.68-1.64-7.04-3.91-10.74-5.49-1.03-.55-2-1.17-2.92-1.86l-1.4.14-.27-1.26-1.75.26-.23-1.28-1.74.3-.27-1.29-1.74.28-.25-1.28-1.76.28-.23-1.27-1.78.26-.22-1.27-1.75.28-.25-1.24-1.73.25-.24-.9c-4.49-1.39-8.31-4.5-12.93-5.41l.05-.95-1.94.2-.16-.85c-3.12-.77-5.72-2.89-8.9-3.45l-.03-.53c-2.29-.6-4.34-1.82-6.6-2.49a11.84 11.84 0 0 0-5.46-1.95l.11-.63c-2.32-.5-4.39-1.69-6.63-2.38a94.45 94.45 0 0 0-5-2.1 34.99 34.99 0 0 0-3.57-.98l.29-.42a39.8 39.8 0 0 1-4.69-1.59 21.15 21.15 0 0 0-3.55-.95l.28-.62-3.41-.28.46-.64a49.03 49.03 0 0 1-4.84-1.43c-.98-.39-1.96-.74-2.94-1.06-.99-.34-1.98-.68-2.96-1a81.09 81.09 0 0 0-3-1c-1.01-.37-2.02-.7-3.03-1a36.36 36.36 0 0 0-3.09-.94c-2.43-.97-4.94-1.84-7.56-2.01l.49-.67-3.37-.18.16-.67-2.73-.4a52.74 52.74 0 0 0-6.96-2.13c-1.46-.53-3.02-.8-4.55-.92l.28-.62c-1.44-.12-2.87-.22-4.3-.3l.46-.74c-1.48-.1-2.95-.19-4.41-.25l.34-.61c-4.19-.57-8.13-2.39-12.39-2.48l.38-.63c-1.41-.11-2.81-.19-4.21-.27l.05-.67c-1.73-.13-3.46-.31-5.18-.36l.39-.66-3.66-.35c-1.72-.72-3.6-.86-5.43-1.11-1.5-.61-3.13-.76-4.71-1a20.53 20.53 0 0 0-6.56-.87l.25-.64c-2.09-.15-4.19-.33-6.28-.37l.35-.64c-2.1-.14-4.21-.31-6.31-.37l.26-.59c-2.46-.19-4.92-.41-7.37-.4l.52-.59c-2.47-.2-4.94-.45-7.42-.37l.28-.58c-2.75-.24-5.51-.49-8.27-.41l.28-.56c-3.46-.25-6.92-.55-10.38-.48l.41-.56c-4.12-.2-8.23-.57-12.35-.42l.33-.6c-6.84-.25-13.68-.62-20.53-.39l.83-.7c-12.9-.16-25.81-.23-38.71.08z"/>
  <path d="M424.25 172.68c5.5.23 10.97-.4 16.47-.35l-.52-.65c11.88.07 23.76.11 35.64-.02l-.66.61c5.9 0 11.78.66 17.68.4l-.7.66c3.94.11 7.86.57 11.81.35l-.95.65c2.28.14 4.58.35 6.88.39 2.83.94 5.85.94 8.8 1l-.32.58c1.92.12 3.84.31 5.76.49 2.47.82 5.09.98 7.68.93l-.6.66c1.78.09 3.57.27 5.36.33l-.05.6c1.5.08 3 .31 4.51.49 1.78.61 3.65.88 5.54.96l-.01.56c1.7.15 3.4.34 5.12.4l-.32.64c1.24.12 2.49.26 3.74.42 1.75.81 3.69.96 5.6.95l-.41.79c1.45.07 2.91.12 4.37.16l-.35.84c1.46.07 2.92.13 4.39.16l-.48.81 2.86.27c1.4.78 3 .9 4.58.98l-.31.65 2.78.4c1.42.64 2.95.91 4.51.96l-.27.75 3.39.19-.37.65 2.72.41c1 .41 2.02.77 3.06 1.09 4 1.26 7.94 2.73 11.96 3.96l2.95 1.15c1.16.37 2.33.67 3.53.9l-.09.44c1.57.42 3.09 1.01 4.61 1.59 1.15.43 2.33.75 3.56.98l-.34.46c1.63.42 3.24.98 4.85 1.53a14.2 14.2 0 0 0 5.31 1.92l.09.57c1.67.54 3.3 1.2 5.05 1.51l-.08.94 1.44-.22a26.23 26.23 0 0 0 7.47 3.23l.27.67c3.83.86 6.94 3.57 10.8 4.36l.06.92 1.83-.27.22.91c1.19.41 2.37.88 3.54 1.4a70.28 70.28 0 0 0 7.96 3.97c1.47 1.23 3.51 1.51 4.88 2.9l1.43-.17.25 1.33 1.8-.42-.18.85c3.9 1.5 7.15 4.44 11.21 5.5l-.2.55c2.04.87 4.04 1.91 5.74 3.37l1.02-.23c1.26 1.64 3.17 2.51 5.04 3.28a18.6 18.6 0 0 0 5.01 2.99 17.45 17.45 0 0 0 5.02 3.02c2.59 1.94 5.32 3.9 8.37 5.09l-.26.49c.95.46 1.9.94 2.85 1.43.9.8 1.9 1.51 3.01 2.04.96.71 1.95 1.41 3.01 2 .95.73 1.97 1.39 3.02 2.01.93.72 1.93 1.39 2.96 2 .92.75 1.94 1.41 2.98 2 3.3 2.38 6.57 4.84 10.04 6.96 3.68 2.79 7.26 5.84 11.32 8.07l-.12.47c4.47 2.85 8.42 6.45 12.82 9.46 2.88 2.48 5.9 4.79 8.94 7.09l1.42.97-.04.76 1.16-.04-.53 1.3 1.16-.67.4 4.44.63-.31c-.1 3.19-.1 6.4.03 9.6l-.68-.79.07 2.82.72-.76c-.34 3.82-.22 7.66-.13 11.49l-1.6.07 1.44.96c.15 5.2.17 10.42-.01 15.61l-1.33.99 1.48.08-.02 4.23-1.68.41 1.69.42c-.04 1.73-.04 3.46 0 5.2l-1.81.38 1.82.4a427.9 427.9 0 0 0 .01 15.2l-1.8.4 1.8.4c-.1 5.08-.1 10.17 0 15.25l-1.59.07 1.44.96c.25 10.3-.04 20.62.14 30.93l-1.8.38 1.79.41v4.21l-1.79.39 1.81.4c-.1 3.08-.09 6.17.01 9.26l-1.61.06 1.45.95c.22 3.32.01 6.65.14 9.98l-1.57.06c2.79 1.11 1.05 4.69 1.57 6.95l-1.59.06c2.83 1.11 1.05 4.76 1.65 7.05l-.64-.59-.03 5.61.63-.61c-.23 9.38.1 18.77-.16 28.14l-1.45.96 1.59.06c-.06 2.42-.06 4.83 0 7.26l-1.73.39 1.74.44c-.1 3.12-.1 6.24.04 9.37l-.69-.64.07 2.78.71-.83c-.39 10.21-.15 20.44-.13 30.65l-.65-.42.02 3.27.64-.28c-.11 3.51-.1 7.03-.01 10.55l-.67-.69c.04 7.46.1 14.93-.03 22.39l6.38.42-6.38.42c.11 14.72.1 29.44 0 44.17l8.21.41-8.17.41-.05 4.54.67-.88c-.02 1.94-.02 3.88.01 5.83l-.71-.81c.04 24.82.15 49.66.04 74.49l8.01.42-8.01.41c.08 2.72.08 5.44 0 8.16l6.3.44-6.29.4.03 4.8.6-1.76.05 5.22-1.59.04 1.45.97c.27 4.09-.07 8.2.19 12.3l-.63-.96-.05 2.76.67-.54c-.15 7.13-.15 14.28 0 21.41l-.63-.24c.25 7.15-1.16 14.17-1.44 21.27l-.65-.32c-.06 1.55-.27 3.09-.39 4.66-.84 1.75-.93 3.72-.99 5.65l-.64-.26c-.14 1.4-.25 2.81-.33 4.24l-.69-.14a117.4 117.4 0 0 0-.31 4.27l-.66-.52-.42 2.87c-.77 1.44-.92 3.06-1.04 4.67l-1.18-.4.45 1.5c-.5 1.06-.93 2.15-1.32 3.28a44.07 44.07 0 0 0-1.93 5.02c-.8 1.6-1.48 3.26-2.05 4.96-2.9 5.67-5.2 11.69-8.84 16.95l.3 1.43-.87-.2c-.74 1.65-1.76 3.16-2.52 4.81-1.12 1.59-2.28 3.18-2.96 5.03a8.18 8.18 0 0 0-2.01 3 92.44 92.44 0 0 0-4.02 6.01c-.76.92-1.44 1.91-2 2.98-1.77 2.38-3.76 4.65-5.07 7.34l-.39-.07c-.94 1.32-1.94 2.61-2.62 4.11l-.37-.22c-.94 1.77-2.51 3.11-3.5 4.86-1.48 1.68-3.07 3.3-4.13 5.29l-.36-.07c-1.3 2.11-3.25 3.71-4.64 5.76l-.87 1.05c-1.72 1.96-3.59 3.78-5.18 5.85l-2.04 1.96-.82 1.52-.4-.1c-3.82 4.92-8.71 8.88-12.71 13.63a7.88 7.88 0 0 0-2.05 2.02 16.12 16.12 0 0 0-2.98 2.97 6.6 6.6 0 0 0-2.03 2.01c-4.07 3.37-7.4 7.55-11.63 10.73l.13.4-1.53.86c-.65.66-1.3 1.32-1.94 2-2.38 1.71-4.13 4.17-6.66 5.69l-.03.38a5.09 5.09 0 0 0-2.27 2.01c-1.85 1.11-3.29 2.74-4.92 4.13l-1.04.86c-2.13 1.53-4.01 3.38-6.02 5.06-1.75 1.22-3.34 2.65-4.93 4.07-5.05 3.93-10.1 7.9-15.04 11.97-6.69 4.96-13.38 9.97-20 15.03a63.7 63.7 0 0 0-3.79 2.51l.09.43c-2.64 1.03-4.62 3.18-7.07 4.56l.06.46a6.5 6.5 0 0 0-3.28 2.01 129.25 129.25 0 0 0-10.06 7.02 6.22 6.22 0 0 0-2.94 2.03 5.82 5.82 0 0 0-2.99 1.99 6.64 6.64 0 0 0-3 1.99 7.56 7.56 0 0 0-3.05 2.02c-1.16.36-2.25 1-2.99 1.99-2.86 1.25-5.26 3.31-7.89 4.94a12.22 12.22 0 0 0-3.06 2.07c-.96.44-1.9.9-2.83 1.4l.12.49c-3.02 1.23-5.74 3.15-8.33 5.09-3.49 1.67-6.72 3.88-9.98 5.97a26.17 26.17 0 0 0-5.04 3.06 20.58 20.58 0 0 0-5.02 2.99 17.15 17.15 0 0 0-4.95 2.95 39.25 39.25 0 0 0-7.05 4c-3.15 1.41-5.95 3.4-9.01 4.97-1.57.88-3.16 1.73-4.76 2.56l.16.85-1.43-.3c-3.03 2.15-6.39 3.8-9.73 5.4l.16.91-1.75-.47-.26 1.05c-5.3 1.93-9.95 5.34-15.17 7.52l.24.54-2.49 1.13-1.04-.06c-5.02 3.59-11.23 5.31-16.02 9.21l-1.47-.48.24 1.24-4.07-.01c-2.17-1.36-4.58-2.27-6.78-3.57-1.73-.84-3.41-1.75-5.15-2.51-1.48-1.21-3.51-1.5-4.83-2.89l-1.45.19-.23-1.35-1.83.44.18-.87c-4.64-2.35-9.47-4.52-13.74-7.49l-.93.31c-2.61-2.39-5.99-3.72-9.07-5.37a46.78 46.78 0 0 1-2.68-1.55c-2.13-1.12-4.11-2.51-6.34-3.39a180.32 180.32 0 0 0-14.05-7.97c-2.3-1.59-4.63-3.41-7.4-4.03l.28-.49a14.97 14.97 0 0 1-3.85-2.39l-1.35.24.11-.85c-1.72-.85-3.26-2.11-5.15-2.55l.18-.44c-1.73-.87-3.29-2.15-5.2-2.57l.25-.53c-.98-.47-1.94-.94-2.91-1.39a19.24 19.24 0 0 0-4.97-3.04c-3.5-2.55-7.23-4.82-10.96-7.02a93.35 93.35 0 0 0-6.08-3.98c-8.04-5.27-15.96-10.71-23.99-15.99a6.73 6.73 0 0 0-2.96-1.97 26.36 26.36 0 0 0-4.04-3.04c-.98-.71-1.94-1.42-2.97-2.02a83.65 83.65 0 0 0-6.99-4.99c-3.9-3.14-8.08-5.89-12-9-4.18-2.92-7.99-6.37-12.29-9.08v-.35c-1.59-1.18-3.12-2.41-4.72-3.54-1.66-1.36-3.2-2.87-5.03-3.98-1.68-1.48-3.29-3.08-5.28-4.13l.07-.35c-2.08-1.32-3.71-3.19-5.73-4.56a122.24 122.24 0 0 0-4.92-4.19 51.32 51.32 0 0 0-2.03-1.88c-2.2-1.44-3.79-3.61-5.99-5.05-.62-.7-1.27-1.36-1.95-1.98l-1.25-.88c-2.6-2.39-5.1-4.89-7.76-7.21a7.74 7.74 0 0 0-2.43-1.98l.18-.76-1.35.13.28-1.11-1.18.03-.07-1.16-.99.37.29-1.18-1.14.23.01-1.09-1.05-.02.03-.7-1.33-1.07a327.65 327.65 0 0 1-8.94-8.94l-1.07-1.33-.7.03-.02-1.04-1.08-.01.27-.82-.97-.27-.22-1.01-.97.39.36-1.29-1.31.2.3-1.28-.95.2c-2.11-3.56-5.56-6.05-8.13-9.26l-.96-1.27a70.7 70.7 0 0 0-1.87-1.97c-1.33-1.69-2.78-3.26-4.22-4.84l-.85-1.05c-5.05-6.33-10.41-12.48-14.85-19.26l-1.23-.71c-.39-1.99-1.91-3.39-3.05-4.95-1.97-3.02-3.94-6.05-5.98-9.01-1.68-2.7-3.17-5.5-4.99-8.09a40.19 40.19 0 0 0-2.39-4.38l-1.58-2.62c-1.46-3.45-3.43-6.66-5.08-10.02a39.1 39.1 0 0 1-1.32-3.5l-.57-.11c-.62-2.59-1.84-4.97-3-7.34-.49-1.59-1.09-3.13-1.52-4.72l-.46.2a38.4 38.4 0 0 0-.89-3.59c-.39-1.01-.8-1.99-1.23-2.95l-.38-2.67-.65.26-.24-3.5-.77.52a149.1 149.1 0 0 0-.25-4.31l-.66.24c-.14-3.18-1.26-6.2-1.5-9.36l-.56.41c-.02-2.48-.25-4.94-.43-7.39l-.64.5c.17-3.86-.25-7.69-.42-11.53l-.61.44c.26-154.66.05-309.32.04-463.97 1.82-4.31 5.87-6.91 9.11-10.04l1.04-.9c2.08-1.33 3.62-3.34 5.75-4.61l-.07-.37c2.02-1.01 3.58-2.69 5.29-4.13 1.87-1.06 3.35-2.65 5.03-3.97 5.35-3.98 10.73-7.93 16.02-11.99 3.36-2.01 6.39-4.54 9.78-6.51l-.12-.46a19.4 19.4 0 0 0 3.21-1.48l-.19-.57c1.1-.39 2.16-.85 3.19-1.39l-.23-.54c4.06-1.81 7.61-4.61 11.34-7.01 2.63-1.25 4.94-3.03 7.48-4.45 2.45-1.64 5.19-2.82 7.56-4.6a32.57 32.57 0 0 0 4.41-2.42c.85-.53 1.71-1.04 2.58-1.54 2.22-.95 4.21-2.34 6.39-3.39.93-.56 1.82-1.16 2.69-1.82l1.02.05c1.81-1.45 3.99-2.28 6-3.38.93-.49 1.86-1 2.79-1.51 2.06-.9 4.05-1.96 6.03-3.03 2.09-.86 4.09-1.92 6.09-2.96 1.15-.48 2.29-.99 3.49-1.35l.17-.87 1.93.17v-.92c2.73-.42 5.16-1.86 7.53-3.21l1.38.14.1-.89c2.48-.33 4.5-1.99 6.95-2.41l.06-.64c1.92-.15 3.64-1.02 5.31-1.91a24.28 24.28 0 0 0 5.05-2.04c1.56-.46 3.08-1.06 4.65-1.51l-.08-.47c1.18-.22 2.34-.53 3.48-.94a14.35 14.35 0 0 1 5.1-1.36l-1.88-.73 4.51-.34-.31-.62c1.23-.23 2.44-.53 3.64-.92l2.96-1.07c1-.31 2-.65 2.99-1a46.65 46.65 0 0 0 6.02-2.11l2.8-.34-.54-.58a23.54 23.54 0 0 0 7.67-2.11l2.95-.33-.7-.62c1.62-.07 3.29-.18 4.76-.93 2.27-.52 4.51-1.17 6.81-1.57l-.3-.59c1.4-.06 2.81-.14 4.22-.24l-.2-.75c1.41-.07 2.82-.15 4.23-.25l-.3-.66c3.13-.08 6.08-1.21 9.17-1.55l-.1-.45a26.5 26.5 0 0 0 5.58-.96c1.64-.24 3.29-.52 4.89-1.04 1.52-.15 3.04-.4 4.57-.51l.03-.57c1.73-.04 3.46-.23 5.19-.31l-.31-.69c2.53.03 5.11-.06 7.52-.92 1.96-.17 3.91-.35 5.88-.49l-.47-.59c2.93-.01 5.94.04 8.76-.93 2.62-.08 5.23-.35 7.86-.47l-.78-.65c3.87.31 7.73-.32 11.6-.32l-.44-.65m11.94 145.54l.15 5.47-1.41-.03 1.38 1.16-.07 1.45-1.43 1.04 1.52.02c-.1 12.12-.09 24.24-.01 36.35l-1.08-.02.6 1.59c-3.08.03-6.15.33-9.22.37l-.11.8c-2.37-.12-4.74.09-7.1.18l.24.79c-2.08-.11-4.15.09-6.2.32l.18.58c-1.75.04-3.46.23-5.19.33l.19.71c-1.49.03-2.98.08-4.45.15l.63.78c-1.79.04-3.55.21-5.33.33l.15.72c-1.39.07-2.77.18-4.14.3l.19.57c-2.44.27-4.78 1.03-7.16 1.59l.12.55-3.32.23.46.59c-2.13.25-4.16.95-6.19 1.59l-.02.45c-1.72.36-3.38.96-5.09 1.35l.24.6c-1.76.29-3.43.92-5.11 1.49l-.06.55c-4.41 1.48-8.83 3.48-12.51 6.35l-.91-.19c-4.22 2.83-8.53 5.53-12.74 8.38l.15.48c-1.71.6-3.13 1.77-4.35 3.07-2.66 1.69-4.78 4.05-7.03 6.22l-.69.03.01.66-1.32 1.31-.69-.03.06 1.06-.73-.03c-1.72 2.51-4.37 4.27-5.71 7.06l-.32-.22c-2.12 3.33-4.85 6.26-6.55 9.86-1.68 2.61-3.51 5.29-4.05 8.42l-.97-.08.3 1.94-.87.16a64.2 64.2 0 0 1-1.54 4.49 14.25 14.25 0 0 0-.91 3.52l-.52-.16-.45 2.69c-.44 1.24-.72 2.54-1.02 3.83-1.09 4.49-2.09 9.09-1.85 13.75l-.58-.31c-.33 6.36-.27 12.73-.04 19.1l.59-.17c0 3.24-.18 6.6.94 9.7.17 3.34.95 6.61 1.91 9.8a37.88 37.88 0 0 0 2.05 6.97c.5 1.55 1.01 3.11 1.45 4.7l.51-.17c.28 2.34 1.56 4.38 2.47 6.52 1.22 2.63 2.81 5.08 4.03 7.72l.51-.15c.42 2.08 1.91 3.64 3.05 5.35 2.54 3.53 5.08 7.11 8.32 10.05l-.08.83.88-.3.09 1.09 1.16.05-.48 1.03 1.34-.15-.07 1.3 1.27-.18-.32 1 1.05.23.3 1.06.57-.37 1.22 1.32v.4c2.02 1.41 3.62 3.32 5.67 4.69l1.12.91c1.2 1.1 2.48 2.13 3.88 2.99a59.28 59.28 0 0 0 7.06 5.01c2.57 1.77 5.08 3.76 7.98 4.99a16.19 16.19 0 0 0 4.95 2.98c3.7 2.73 8.14 4.29 11.89 6.91l1.46-.13.22 1.25 1.74-.3.26 1.29 1.76-.28.2 1.27 1.79-.26.21.92c1.18.38 2.32.87 3.49 1.33 2.39 1.22 4.74 2.67 7.45 3.1l-.02.95 1.46-.2a28.63 28.63 0 0 0 7.13 3.22c1.59.81 3.22 1.58 4.97 2.02 1.59.84 3.24 1.62 5.03 1.98a45.6 45.6 0 0 0 4.93 2.1c1.15.4 2.32.71 3.52.95l-.14.56c1.71.45 3.38 1.08 5.14 1.41l-.16.5c1.96.64 3.92 1.41 6.02 1.43.21 32.18-.01 64.37.11 96.56a98.59 98.59 0 0 0-5.16.02l-.03-.53c-3.67-.16-7.33-.51-11.01-.49l.01-.55c-2.69-.22-5.38-.48-8.07-.48l.26-.62c-2.08-.17-4.17-.35-6.26-.37l.26-.65c-1.74-.12-3.46-.31-5.19-.34l.07-.62c-1.71-.15-3.42-.35-5.12-.39l.2-.63-3.68-.41c-5.29-1.57-10.71-2.72-16.05-4.12-1.29-.45-2.64-.66-3.95-.99a10.76 10.76 0 0 0-4.51-.87l.22-.63-2.78-.42a30.02 30.02 0 0 0-3.93-1.06 31.91 31.91 0 0 0-7.03-1.95 24.1 24.1 0 0 0-7.63-2.03l.43-.55-2.84-.36c-2.91-1.23-5.97-2.04-8.92-3.14a24.86 24.86 0 0 0-3.55-.96l.17-.59-3.45-.38.62-.78c-2.49-.06-4.56-1.55-6.87-2.24-1.74-.82-3.48-1.71-5.4-2l.03-.5c-2.4-.65-4.51-2.15-7-2.48l-.05-.96-1.37.12c-1.06-.85-2.42-1.09-3.66-1.48.06 26.66.04 53.33.01 79.99 1.56.72 3.14 1.42 4.79 1.95 1.6.81 3.27 1.52 5.01 1.99 1.64.79 3.34 1.5 5.1 2.02l2.82 1.11c1.18.36 2.37.66 3.58.9l-.21.6 3.3.27-.34.68 2.7.37c.98.41 1.98.8 3 1.18 1.45.48 2.96.78 4.51.78l-.29.82 3.37.12-.28.56c2.78.57 5.49 1.53 8.37 1.57l-.59.51c2.84.5 5.62 1.34 8.52 1.5l-.35.54c1.25.12 2.51.27 3.77.43 2.09.88 4.37.96 6.6.96l-.49.73c1.84.1 3.67.21 5.53.24l-.54.64c2.16.22 4.33.38 6.5.36l-.47.69c2.14.15 4.28.29 6.43.32l-.36.57c2.4.21 4.81.43 7.23.42l-.06.54c3.06.23 6.13.57 9.2.4l-.36.59c4.09.24 8.18.62 12.28.43l-.14.62c7.08.23 14.17.64 21.27.39l-.5.69 3.07.06c-.53 2.23 1.2 5.81-1.63 6.86l1.61.06c-.08 2.53-.06 5.07.05 7.62l-.63-.92-.06 2.69.69-.44c-.28 4.67.1 9.36-.19 14.03l-1.44.97 1.59.05c-.09 3.43-.09 6.87 0 10.32l-1.62.06 1.47.95c.28 4.74-.08 9.5.18 14.25l-.64-.85-.01 2.86.73-.85-.34 3.71c4.83-.13 9.66 0 14.49-.11l.41 1.74.41-1.75c8.72.04 17.45.23 26.17-.16-.08-20.95 0-41.89-.04-62.84 2.74.09 5.48-.19 8.21-.41l-.53-.68c2.53.21 5.06-.03 7.59-.26l-.65-.61c2.48.04 4.96-.16 7.42-.43l-.23-.58c1.81-.05 3.63-.2 5.44-.3l-.61-.65c3.65.01 7.23-.86 10.68-2l2.99-.28-.66-.76 4.44-.19-.25-.78c1.52-.11 3.12-.19 4.48-.97l2.72-.41-.31-.67 3.27-.24-.2-.59c1.19-.27 2.38-.58 3.55-.95 1.69-.6 3.41-1.18 4.98-2.08 2.29-.48 4.21-1.98 6.51-2.41l.1-.87 2.06.15-.16-.89c2.13-.28 3.96-1.44 5.82-2.42.88-.52 1.76-1.05 2.63-1.59 3.57-1.55 6.79-3.83 10.01-6 5.34-3.28 9.94-7.55 14.69-11.59l-.03-.75 1.07.08-.06-.7 1.31-1.31.66.01.04-.7a70.28 70.28 0 0 0 9.23-10.99c.77-.95 1.46-1.95 2.01-3.02.94-1.32 1.89-2.63 2.84-3.93l-.1-.96c2.52-2.89 3.92-6.57 5.38-10.07.94-1.56 1.43-3.32 2.08-5 .43-1.21.74-2.44.91-3.7l.53.52.32-2.84c.94-1.33.9-2.96 1.01-4.49l.64.2c.13-1.8.31-3.58.18-5.36l.78.61c.16-2.17.34-4.33.38-6.49l.54.28c.69-9.07.62-18.18.06-27.25l-.66.31c.12-2.5-.08-4.99-.27-7.47l-.64.64a83.29 83.29 0 0 0-.38-6.34l-.67.11c-.09-1.35-.18-2.7-.29-4.04l-.73.04-.21-3.38-.56.72a14.46 14.46 0 0 0-1-3.85 16.25 16.25 0 0 0-2.33-5.03l.12-1.3-.86-.29-.88-2.31a88.04 88.04 0 0 0-6.18-9.97c-1.13-1.64-2.5-3.12-3.54-4.82l-.36.15c-1.35-2.66-3.79-4.47-5.7-6.67-3.18-2.95-5.97-6.39-9.64-8.72l.06-.35c-1.67-1.06-3.05-2.52-4.74-3.54a28.8 28.8 0 0 0-3.97-3.01 8.9 8.9 0 0 0-3.37-2.05l.19-.51a11.94 11.94 0 0 0-3.23-1.43l.19-.56c-.94-.5-1.9-.96-2.86-1.39a18.48 18.48 0 0 0-4.98-3.05 84.84 84.84 0 0 0-11.03-6.03c-1.43-1.16-3.31-1.5-4.73-2.63-1.51-.42-2.81-1.28-4.19-1.96-4.2-1.67-8-4.28-12.38-5.44l-.11-.57c-3.15-.73-5.75-2.87-8.94-3.42l.02-.48c-2.28-.69-4.4-1.81-6.65-2.55-1.71-.9-3.48-1.84-5.44-1.93l.18-.59c-1.73-.48-3.38-1.23-5.17-1.43l.1-.64c-2.35-.42-4.41-1.68-6.66-2.37-1.65-.73-3.3-1.44-4.97-2.09-1.15-.4-2.32-.71-3.49-.96l.19-.77-2.98.02a18772 18772 0 0 0-.01-91.91c2.38.16 4.76.24 7.16.22l-.36.57c2.53.13 5.06.39 7.6.46 2.86.99 5.91 1 8.9.97l-.7.67c1.61.05 3.23.25 4.86.39 2.13.77 4.41.94 6.68.95l-.31.65c1.74.1 3.48.28 5.24.35l-.21.54c3.12.37 6.13 1.36 9.28 1.54l-.27.62 4.15.26-.06.73c1.38.11 2.76.2 4.16.29l-.28.55c2.42.46 4.78 1.2 7.23 1.57l-.1.58c1.36.11 2.73.21 4.11.28l-.3.87 3.5.14-.57.75 3.43.25-.22.68 2.65.38c.96.42 1.94.82 2.93 1.22 1.18.32 2.38.62 3.59.88l-.19.63 4.58.32-2.08.72c1.8.1 3.56.57 5.18 1.39 1.12.4 2.28.71 3.47.93l-.05.48c1.95.43 6.11 3.18 6.26-.37.78-1.68 1.63-3.35 1.97-5.18a14.97 14.97 0 0 0 2.04-4.98c.94-1.69 1.8-3.47 1.94-5.43l.53.23c.52-1.73 1.18-3.41 1.5-5.18l.53.04c.51-1.67 1.16-3.29 1.47-5.01l.55-.02c.5-1.67 1.14-3.29 1.47-5l.53.01c.47-1.68 1.16-3.28 1.47-4.99l.54-.02c.52-1.68 1.17-3.33 1.48-5.06l.53.2c.48-1.74 1.15-3.43 1.46-5.2l.54.19c.51-1.71 1.14-3.38 1.45-5.14l.57.03c.5-1.69 1.11-3.35 1.46-5.07l.56.08c.51-2.31 1.68-4.39 2.38-6.63.73-1.64 1.45-3.29 2.1-4.97.28-.86.53-1.72.75-2.6l-1.75.18a9.73 9.73 0 0 0-5.48-2.21l.04-.63c-2.31-.54-4.43-1.62-6.64-2.45l-2.92-1.07a17.91 17.91 0 0 0-3.85-1.01l.7-.46c-5.34-1-10.18-3.91-15.62-4.44l.68-.6-3.48-.26.19-.52c-2.19-.49-4.35-1.11-6.54-1.57-1.38-.85-3.06-.79-4.6-.97l.14-.65a198 198 0 0 0-4.11-.28l.12-.7c-1.37-.12-2.74-.22-4.1-.31v-.54c-2.9-.37-5.72-1.17-8.6-1.63a18.96 18.96 0 0 0-6.56-.85l.45-.68c-1.78-.1-3.54-.28-5.31-.3l.1-.6c-2.02-.17-4.04-.36-6.06-.42l-.02-.53c-2.14-.2-4.26-.39-6.39-.52-2.79-1.05-5.82-.87-8.74-.9l.33-.55c-3.47-.26-6.94-.62-10.41-.4l.53-.62c-4.82-.15-9.63-.78-14.44-.36l.42-.69-5.37-.09c.07-15.13-.08-30.25.08-45.37-3.13.03-6.25 0-9.37.07l.91-.68c-7.93-.02-15.86.01-23.79.07l.64.63c-3.21-.09-6.42-.06-9.63-.12z"/>
  <path d="M423.37 442.68l4.26-.23-.3-.72c2.76-.08 5.51-.42 8.27-.62.04 24.02.11 48.05-.04 72.07-2.81-.79-5.28-2.52-8.17-3l.02-.98-1.89.31-.2-.92-2.45-1.3-1.35.34.07-.87c-1.6-.81-3.16-1.69-4.76-2.48-1.97-1.39-3.95-2.79-6.04-4-1.7-1.47-3.34-3.04-5.29-4.18l.14-.5-1.34-1.25-.85.24.22-1.17-.75.01a5.32 5.32 0 0 0-2.04-2.33l-1.05-2.01c-1.05-1.77-2.17-3.56-2.51-5.63l-.62.19-.35-4.21-.67.21a464.6 464.6 0 0 1 0-11.2l.61-.02c.12-1.68.34-3.35.42-5.02l.52.01c2.65-9.56 12-14.98 20.57-18.58 1.03-.32 2.05-.69 3.06-1.09l2.72-.4-.21-.67zM477.57 619.29c6.2 2.1 11.7 5.74 17.62 8.46a15.4 15.4 0 0 0 5.33 3.09l-.09.46c2.54 1.25 4.51 3.39 7.11 4.54l-.19.45c4.61 3.02 8.85 7.69 10.1 13.15l.83-.28.29 3.53.72-.38c.42 5.1.54 10.21-.01 15.31l-.65-.1c-.14 1.37-.25 2.74-.34 4.12l-1.09-.21.29 2.09-1.39.24.5 1.31a7.08 7.08 0 0 0-2.31 3.16 36.76 36.76 0 0 1-9.98 8.99 10.73 10.73 0 0 0-3.23 2.13l-1.68-.01.26.85c-1.77.27-3.42.96-5.09 1.52l.06.43c-1.23.2-2.4.57-3.52 1.09l-2.82.39.51.66c-1.46.08-2.9.18-4.35.3l.17.69c-2.35.07-4.69.36-7.02.66 0-25.54.05-51.09-.03-76.64z"/>
</svg>
