<?xml version="1.0" encoding="utf-8"?>
<!-- Generator: Adobe Illustrator 23.0.3, SVG Export Plug-In . SVG Version: 6.00 Build 0)  -->
<svg version="1.1" id="Layer_1" xmlns="http://www.w3.org/2000/svg" xmlns:xlink="http://www.w3.org/1999/xlink" x="0px" y="0px"
	 viewBox="0 0 237.6 26" style="enable-background:new 0 0 237.6 26;" xml:space="preserve">
<style type="text/css">
	.st0{fill:#FFFFFF;}
</style>
<title>Horizontal - Inverted</title>
<g>
	<g id="Layer_3_copy">
		<polygon class="st0" points="16.8,8.2 14.4,14.8 12,8.2 8,8.2 5.6,14.8 3.2,8.2 0,8.2 3.5,17.8 7.8,17.8 10,11.6 12.3,17.8 
			16.5,17.8 20,8.2 		"/>
		<polygon class="st0" points="43.4,12.1 48.1,8.2 43.3,8.2 41,10.1 		"/>
		<polygon class="st0" points="33,5.2 28.3,5.2 37.6,13 34.7,15.5 28.5,8.2 24.6,8.2 13.9,20.9 17.9,20.9 26.6,10.6 29.1,13.6 
			25.8,13.6 24.1,15.5 30.7,15.5 32.6,17.8 36.6,17.8 36.6,17.8 40,15 43.3,17.8 48.1,17.8 		"/>
		<rect x="55.2" class="st0" width="1.6" height="26"/>
		<path class="st0" d="M147.3,23.3c-2,0-3.6-1.5-3.6-3.5c0,0,0-0.1,0-0.1V9c0-0.9,0.3-1.9,1-2.5c0.7-0.7,1.6-1.1,2.6-1.1h10.8
			c1,0,1.9,0.4,2.5,1.1c0.7,0.7,1.1,1.6,1.1,2.5v1.8h-3.6c0-0.5-0.2-0.9-0.5-1.3c-0.3-0.3-0.8-0.5-1.3-0.5h-7.2
			c-0.5,0-1,0.2-1.3,0.5c-0.3,0.3-0.5,0.8-0.5,1.3V18c0,1,0.7,1.8,1.7,1.8c0,0,0.1,0,0.1,0h7.2c1,0,1.8-0.8,1.8-1.8c0,0,0,0,0,0h3.6
			v1.8c0,1-0.4,1.9-1.1,2.5c-0.7,0.7-1.6,1-2.5,1L147.3,23.3z"/>
		<path class="st0" d="M166.3,23.3c-2,0-3.6-1.5-3.6-3.5c0,0,0-0.1,0-0.1V9c0-0.9,0.3-1.9,1-2.5c0.7-0.7,1.6-1.1,2.6-1.1H177
			c1,0,1.9,0.4,2.5,1.1c0.7,0.6,1.1,1.6,1.1,2.5v1.8h-3.6c0-0.5-0.2-0.9-0.5-1.3c-0.3-0.3-0.8-0.5-1.3-0.5h-7.2
			c-0.5,0-1,0.2-1.3,0.5c-0.3,0.3-0.5,0.8-0.5,1.3V18c0,1,0.7,1.8,1.7,1.8c0,0,0.1,0,0.1,0h7.2c1,0,1.8-0.8,1.8-1.8c0,0,0,0,0,0h3.6
			v1.8c0,1-0.4,1.9-1.1,2.5c-0.7,0.7-1.6,1-2.5,1L166.3,23.3z"/>
		<path class="st0" d="M204.3,23.3c-2,0-3.6-1.5-3.6-3.5c0,0,0-0.1,0-0.1v-1.8h3.6c0,1,0.7,1.8,1.7,1.8c0,0,0.1,0,0.1,0h7.2
			c1,0,1.8-0.8,1.8-1.8c0,0,0,0,0,0c0-1-0.8-1.8-1.8-1.8h-9c-1,0-1.9-0.3-2.6-1c-0.7-0.7-1-1.6-1-2.6V9c0-0.9,0.3-1.9,1-2.5
			c0.7-0.7,1.6-1.1,2.6-1.1H215c1,0,1.9,0.4,2.5,1.1c0.7,0.7,1.1,1.6,1.1,2.5v1.8H215c0-0.5-0.2-0.9-0.5-1.3
			c-0.3-0.3-0.8-0.5-1.2-0.5h-7.2c-0.5,0-1,0.2-1.3,0.5c-0.7,0.7-0.7,1.8,0,2.5c0.3,0.3,0.8,0.5,1.3,0.5h9c2,0,3.6,1.6,3.6,3.6v3.6
			c0,1-0.4,1.9-1.1,2.5c-0.7,0.7-1.6,1-2.5,1H204.3z"/>
		<path class="st0" d="M223.2,23.3c-2,0-3.6-1.5-3.6-3.5c0,0,0-0.1,0-0.1v-1.8h3.6c0,1,0.7,1.8,1.7,1.8c0,0,0.1,0,0.1,0h7.2
			c1,0,1.8-0.8,1.8-1.8c0,0,0,0,0,0c0-1-0.8-1.8-1.8-1.8h-9c-1,0-1.9-0.3-2.6-1c-0.7-0.7-1-1.6-1-2.6V9c0-0.9,0.3-1.9,1-2.5
			c0.7-0.7,1.6-1.1,2.6-1.1H234c1,0,1.9,0.4,2.5,1.1c0.7,0.7,1.1,1.6,1.1,2.5v1.8H234c0-0.5-0.2-0.9-0.5-1.3
			c-0.3-0.3-0.8-0.5-1.3-0.5H225c-0.5,0-1,0.2-1.3,0.5c-0.7,0.7-0.6,1.9,0.1,2.5c0.3,0.3,0.8,0.5,1.2,0.5h9c1,0,1.9,0.4,2.5,1.1
			c0.7,0.7,1.1,1.6,1.1,2.5v3.6c0,1-0.4,1.9-1.1,2.5c-0.7,0.7-1.6,1-2.5,1L223.2,23.3z"/>
		<path class="st0" d="M84.8,23.3v-18h3.6v14.4h14.4v3.6H84.8z"/>
		<path class="st0" d="M103.8,23.3v-18h3.6v14.4h14.4v3.6H103.8z"/>
		<polygon class="st0" points="73.8,2.7 63.4,23.3 67.6,23.3 73.8,10.9 79.9,23.3 84.1,23.3 		"/>
		<polygon class="st0" points="133.4,2.7 123.1,23.3 127.2,23.3 133.4,10.9 139.6,23.3 143.7,23.3 		"/>
		<rect x="182.2" y="19.7" class="st0" width="17.4" height="3.6"/>
		<rect x="182.2" y="12.5" class="st0" width="17.4" height="3.6"/>
		<rect x="182.2" y="5.4" class="st0" width="17.4" height="3.6"/>
	</g>
</g>
</svg>
