<?xml version="1.0" encoding="utf-8"?>
<!-- Generator: Adobe Illustrator 23.0.3, SVG Export Plug-In . SVG Version: 6.00 Build 0)  -->
<svg version="1.1" id="Layer_1" xmlns="http://www.w3.org/2000/svg" xmlns:xlink="http://www.w3.org/1999/xlink" x="0px" y="0px"
	 viewBox="0 0 216 49.8" style="enable-background:new 0 0 216 49.8;" xml:space="preserve">
<style type="text/css">
	.st0{fill:#FFFFFF;}
</style>
<title>Standard - Inverted</title>
<g>
	<g id="Layer_3_copy">
		<polygon class="st0" points="101.8,2.6 99.8,8.2 97.8,2.6 94.4,2.6 92.3,8.2 90.3,2.6 87.5,2.6 90.5,10.8 94.2,10.8 96.1,5.5 
			98,10.8 101.6,10.8 104.6,2.6 		"/>
		<polygon class="st0" points="124.5,5.9 128.5,2.6 124.4,2.6 122.5,4.2 		"/>
		<polygon class="st0" points="115.7,0 111.6,0 119.6,6.7 117.1,8.8 111.8,2.6 108.5,2.6 99.4,13.4 102.8,13.4 110.2,4.6 112.3,7.1 
			109.5,7.1 108.1,8.8 113.7,8.8 115.3,10.8 118.7,10.8 118.7,10.8 121.6,8.4 124.4,10.8 128.5,10.8 		"/>
		<path class="st0" d="M206.2,7.1h-73.3v1.8h73.3c4.5,0,8.1,3.6,8.1,8.1c0,0,0,0,0,0v23c0,4.4-3.6,8-8.1,8H9.8c-4.4,0-8-3.6-8-8V17
			c0-4.4,3.6-8,8.1-8h73.3V7.1H9.8C4.4,7.1,0,11.6,0,17c0,0,0,0,0,0v23c0,5.4,4.4,9.8,9.8,9.8h196.3c5.4,0,9.8-4.4,9.8-9.8V17
			C216,11.6,211.6,7.1,206.2,7.1L206.2,7.1z"/>
		<path class="st0" d="M104.8,39.7c-1.1,0-2.1-0.4-2.8-1.2c-0.8-0.7-1.2-1.8-1.2-2.8V23.8c0-1.1,0.4-2.1,1.2-2.8
			c0.7-0.8,1.8-1.2,2.8-1.2h11.9c1.1,0,2.1,0.4,2.8,1.2c0.8,0.7,1.2,1.7,1.2,2.8v2h-4c0-0.5-0.2-1-0.6-1.4c-0.4-0.4-0.9-0.6-1.4-0.6
			h-8c-0.5,0-1.1,0.2-1.4,0.6c-0.4,0.4-0.6,0.9-0.6,1.4v8c0,1.1,0.8,2,1.8,2c0.1,0,0.1,0,0.2,0h8c1.1,0,2-0.9,2-2h4v2
			c0,1.1-0.4,2.1-1.2,2.8c-0.7,0.7-1.7,1.2-2.8,1.2L104.8,39.7z"/>
		<path class="st0" d="M125.8,39.7c-1.1,0-2.1-0.4-2.8-1.2c-0.7-0.8-1.2-1.8-1.2-2.8V23.8c0-2.2,1.8-4,4-4h11.9
			c1.1,0,2.1,0.4,2.8,1.2c0.8,0.7,1.2,1.7,1.2,2.8v2h-4c0-1.1-0.9-2-2-2h-7.9c-1.1,0-2,0.9-2,2v8c0,0.5,0.2,1,0.6,1.4
			c0.4,0.4,0.9,0.6,1.4,0.6h8c0.5,0,1-0.2,1.4-0.6c0.4-0.4,0.6-0.9,0.6-1.4h4v2c0,1.1-0.4,2.1-1.2,2.8c-0.7,0.7-1.8,1.2-2.8,1.2
			L125.8,39.7z"/>
		<path class="st0" d="M167.7,39.7c-1.1,0-2.1-0.4-2.8-1.2c-0.8-0.7-1.2-1.8-1.1-2.8v-2h4c0,1.1,0.8,2,1.8,2c0.1,0,0.1,0,0.2,0h8
			c1.1,0,2-0.9,2-2c0-0.5-0.2-1-0.6-1.4c-0.4-0.4-0.9-0.6-1.4-0.6h-9.9c-1.1,0-2.1-0.4-2.8-1.1c-0.8-0.7-1.2-1.8-1.1-2.8v-4
			c0-2.2,1.8-4,4-4h11.9c1,0,2,0.5,2.7,1.3c0.8,0.7,1.2,1.7,1.2,2.8v2h-4c0-0.5-0.2-1-0.6-1.4c-0.4-0.4-0.9-0.6-1.4-0.6h-8
			c-0.5,0-1.1,0.2-1.4,0.6c-0.4,0.4-0.6,0.9-0.6,1.4c0,1.1,0.8,2,1.8,2c0.1,0,0.1,0,0.2,0h9.9c1.1,0,2.1,0.4,2.8,1.2
			c0.8,0.7,1.2,1.7,1.2,2.8v4c0,1.1-0.4,2.1-1.2,2.8c-0.7,0.7-1.7,1.2-2.8,1.2L167.7,39.7z"/>
		<path class="st0" d="M188.7,39.7c-2.2,0-4-1.7-4-3.9c0,0,0-0.1,0-0.1v-2h4c0,1.1,0.8,2,1.8,2c0.1,0,0.1,0,0.2,0h7.9
			c1.1,0,2-0.9,2-2c0-0.5-0.2-1-0.6-1.4c-0.4-0.4-0.9-0.6-1.4-0.6h-9.9c-2.2,0-4-1.7-4-3.9c0,0,0-0.1,0-0.1v-4
			c0-1.1,0.4-2.1,1.1-2.8c0.7-0.8,1.8-1.2,2.8-1.2h11.9c1.1,0,2.1,0.4,2.8,1.2c0.8,0.7,1.2,1.7,1.2,2.8v2h-4c0-0.5-0.2-1-0.6-1.4
			c-0.4-0.4-0.9-0.6-1.4-0.6h-7.9c-0.5,0-1.1,0.2-1.4,0.6c-0.4,0.4-0.6,0.9-0.6,1.4c0,1.1,0.8,2,1.8,2c0.1,0,0.1,0,0.2,0h9.9
			c1.1,0,2.1,0.4,2.8,1.2c0.8,0.7,1.2,1.7,1.2,2.8v4c0,1.1-0.4,2.1-1.2,2.8c-0.7,0.7-1.8,1.2-2.8,1.2L188.7,39.7z"/>
		<path class="st0" d="M35.7,39.7V19.8h4v15.9h15.9v4L35.7,39.7z"/>
		<path class="st0" d="M56.7,39.7V19.8h4v15.9h15.9v4L56.7,39.7z"/>
		<polygon class="st0" points="23.4,16.9 12,39.7 16.5,39.7 23.4,26 30.2,39.7 34.8,39.7 		"/>
		<polygon class="st0" points="89.4,16.9 78,39.7 82.5,39.7 89.4,26 96.2,39.7 100.8,39.7 		"/>
		<rect x="143.4" y="35.7" class="st0" width="19.3" height="4"/>
		<rect x="143.4" y="27.7" class="st0" width="19.3" height="4"/>
		<rect x="143.4" y="19.8" class="st0" width="19.3" height="4"/>
	</g>
</g>
</svg>
